<mxfile host="" modified="2020-05-24T15:21:41.060Z" agent="5.0 (X11; Linux x86_64) AppleWebKit/537.36 (KHTML, like Gecko) Code/1.45.0 Chrome/78.0.3904.130 Electron/7.2.4 Safari/537.36" version="13.1.3" etag="lrwgP8mNOWNbAz78NI_h" pages="2">
            <diagram id="diagramid" name="Diagram">
              <mxGraphModel><root><mxCell id="0"/><mxCell id="1" parent="0"/><mxCell id="2" value="lambdaPMProle" style="outlineConnect=0;fontColor=#B3B3B3;gradientColor=#F54749;gradientDirection=north;fillColor=#C7131F;strokeColor=#ffffff;dashed=0;verticalLabelPosition=bottom;verticalAlign=top;align=center;html=1;fontSize=12;fontStyle=0;aspect=fixed;shape=mxgraph.aws4.resourceIcon;resIcon=mxgraph.aws4.role;" vertex="1" parent="1"><mxGeometry x="750" y="100" width="50" height="50" as="geometry"/></mxCell><mxCell id="3" value="SyncPMPMember" style="outlineConnect=0;fontColor=#B3B3B3;gradientColor=#F78E04;gradientDirection=north;fillColor=#D05C17;strokeColor=#ffffff;dashed=0;verticalLabelPosition=bottom;verticalAlign=top;align=center;html=1;fontSize=12;fontStyle=0;aspect=fixed;shape=mxgraph.aws4.resourceIcon;resIcon=mxgraph.aws4.lambda;" vertex="1" parent="1"><mxGeometry x="500" y="95.92091036552712" width="50" height="50" as="geometry"/></mxCell><mxCell id="4" value="awsrequests" style="outlineConnect=0;fontColor=#B3B3B3;gradientColor=#aaaaaa;gradientDirection=north;fillColor=#aaaaaa;strokeColor=#ffffff;dashed=0;verticalLabelPosition=bottom;verticalAlign=top;align=center;html=1;fontSize=12;fontStyle=0;aspect=fixed;shape=mxgraph.aws4.resourceIcon;resIcon=mxgraph.aws4.serverless;" vertex="1" parent="1"><mxGeometry x="750" width="50" height="50" as="geometry"/></mxCell><mxCell id="5" value="SSMMemberExperienceIds" style="outlineConnect=0;fontColor=#B3B3B3;gradientColor=#F34482;gradientDirection=north;fillColor=#BC1356;strokeColor=#ffffff;dashed=0;verticalLabelPosition=bottom;verticalAlign=top;align=center;html=1;fontSize=12;fontStyle=0;aspect=fixed;shape=mxgraph.aws4.resourceIcon;resIcon=mxgraph.aws4.parameter_store;" vertex="1" parent="1"><mxGeometry y="950" width="50" height="50" as="geometry"/></mxCell><mxCell id="6" value="SSMCrossAccountAccessRoleARN" style="outlineConnect=0;fontColor=#B3B3B3;gradientColor=#F34482;gradientDirection=north;fillColor=#BC1356;strokeColor=#ffffff;dashed=0;verticalLabelPosition=bottom;verticalAlign=top;align=center;html=1;fontSize=12;fontStyle=0;aspect=fixed;shape=mxgraph.aws4.resourceIcon;resIcon=mxgraph.aws4.parameter_store;" vertex="1" parent="1"><mxGeometry y="1100" width="50" height="50" as="geometry"/></mxCell><mxCell id="7" value="SSMRejectedTable" style="outlineConnect=0;fontColor=#B3B3B3;gradientColor=#F34482;gradientDirection=north;fillColor=#BC1356;strokeColor=#ffffff;dashed=0;verticalLabelPosition=bottom;verticalAlign=top;align=center;html=1;fontSize=12;fontStyle=0;aspect=fixed;shape=mxgraph.aws4.resourceIcon;resIcon=mxgraph.aws4.parameter_store;" vertex="1" parent="1"><mxGeometry y="1250" width="50" height="50" as="geometry"/></mxCell><mxCell id="8" value="SSMApprovedTable" style="outlineConnect=0;fontColor=#B3B3B3;gradientColor=#F34482;gradientDirection=north;fillColor=#BC1356;strokeColor=#ffffff;dashed=0;verticalLabelPosition=bottom;verticalAlign=top;align=center;html=1;fontSize=12;fontStyle=0;aspect=fixed;shape=mxgraph.aws4.resourceIcon;resIcon=mxgraph.aws4.parameter_store;" vertex="1" parent="1"><mxGeometry y="1400" width="50" height="50" as="geometry"/></mxCell><mxCell id="9" value="SSMSyncTimestampsTableName" style="outlineConnect=0;fontColor=#B3B3B3;gradientColor=#F34482;gradientDirection=north;fillColor=#BC1356;strokeColor=#ffffff;dashed=0;verticalLabelPosition=bottom;verticalAlign=top;align=center;html=1;fontSize=12;fontStyle=0;aspect=fixed;shape=mxgraph.aws4.resourceIcon;resIcon=mxgraph.aws4.parameter_store;" vertex="1" parent="1"><mxGeometry y="1550" width="50" height="50" as="geometry"/></mxCell><mxCell id="10" value="SQSSyncNotifications" style="outlineConnect=0;fontColor=#B3B3B3;gradientColor=#F34482;gradientDirection=north;fillColor=#BC1356;strokeColor=#ffffff;dashed=0;verticalLabelPosition=bottom;verticalAlign=top;align=center;html=1;fontSize=12;fontStyle=0;aspect=fixed;shape=mxgraph.aws4.resourceIcon;resIcon=mxgraph.aws4.sqs;" vertex="1" parent="1"><mxGeometry x="250" y="185.98540521022937" width="50" height="50" as="geometry"/></mxCell><mxCell id="11" value="SQSSyncNotificationsPolicy" style="outlineConnect=0;fontColor=#B3B3B3;gradientColor=#F34482;gradientDirection=north;fillColor=#BC1356;strokeColor=#ffffff;dashed=0;verticalLabelPosition=bottom;verticalAlign=top;align=center;html=1;fontSize=12;fontStyle=0;aspect=fixed;shape=mxgraph.aws4.resourceIcon;resIcon=mxgraph.aws4.sqs;" vertex="1" parent="1"><mxGeometry y="185.98540521022937" width="50" height="50" as="geometry"/></mxCell><mxCell id="12" value="SnsSubscription" style="outlineConnect=0;fontColor=#B3B3B3;gradientColor=#F34482;gradientDirection=north;fillColor=#BC1356;strokeColor=#ffffff;dashed=0;verticalLabelPosition=bottom;verticalAlign=top;align=center;html=1;fontSize=12;fontStyle=0;aspect=fixed;shape=mxgraph.aws4.resourceIcon;resIcon=mxgraph.aws4.sns;" vertex="1" parent="1"><mxGeometry y="287.7627310965814" width="50" height="50" as="geometry"/></mxCell><mxCell id="13" value="BlockPMPAdminSCP" style="outlineConnect=0;fontColor=#B3B3B3;gradientColor=#F34482;gradientDirection=north;fillColor=#BC1356;strokeColor=#ffffff;dashed=0;verticalLabelPosition=bottom;verticalAlign=top;align=center;html=1;fontSize=12;fontStyle=0;aspect=fixed;shape=mxgraph.aws4.resourceIcon;resIcon=mxgraph.aws4.organizations;" vertex="1" parent="1"><mxGeometry x="750" y="500" width="50" height="50" as="geometry"/></mxCell><mxCell id="14" value="GetEnvInfo" style="outlineConnect=0;fontColor=#B3B3B3;gradientColor=#F78E04;gradientDirection=north;fillColor=#D05C17;strokeColor=#ffffff;dashed=0;verticalLabelPosition=bottom;verticalAlign=top;align=center;html=1;fontSize=12;fontStyle=0;aspect=fixed;shape=mxgraph.aws4.resourceIcon;resIcon=mxgraph.aws4.lambda;" vertex="1" parent="1"><mxGeometry x="1250" y="494.36864852905273" width="50" height="50" as="geometry"/></mxCell><mxCell id="15" value="CRGetEnvInfo" style="outlineConnect=0;fontColor=#B3B3B3;gradientColor=#F34482;gradientDirection=north;fillColor=#BC1356;strokeColor=#ffffff;dashed=0;verticalLabelPosition=bottom;verticalAlign=top;align=center;html=1;fontSize=12;fontStyle=0;aspect=fixed;shape=mxgraph.aws4.resourceIcon;resIcon=mxgraph.aws4.cloudformation;" vertex="1" parent="1"><mxGeometry x="1000" y="496.24576568603516" width="50" height="50" as="geometry"/></mxCell><mxCell id="16" value="GetEnvInfoRole" style="outlineConnect=0;fontColor=#B3B3B3;gradientColor=#F54749;gradientDirection=north;fillColor=#C7131F;strokeColor=#ffffff;dashed=0;verticalLabelPosition=bottom;verticalAlign=top;align=center;html=1;fontSize=12;fontStyle=0;aspect=fixed;shape=mxgraph.aws4.resourceIcon;resIcon=mxgraph.aws4.role;" vertex="1" parent="1"><mxGeometry x="1500" y="494.36864852905273" width="50" height="50" as="geometry"/></mxCell><mxCell id="17" value="BlockPMPAdminPolicyBoundary" style="outlineConnect=0;fontColor=#B3B3B3;gradientColor=#F54749;gradientDirection=north;fillColor=#C7131F;strokeColor=#ffffff;dashed=0;verticalLabelPosition=bottom;verticalAlign=top;align=center;html=1;fontSize=12;fontStyle=0;aspect=fixed;shape=mxgraph.aws4.resourceIcon;resIcon=mxgraph.aws4.identity_and_access_management;" vertex="1" parent="1"><mxGeometry x="500" y="370" width="50" height="50" as="geometry"/></mxCell><mxCell id="18" value="SetBoundaryLambda" style="outlineConnect=0;fontColor=#B3B3B3;gradientColor=#F78E04;gradientDirection=north;fillColor=#D05C17;strokeColor=#ffffff;dashed=0;verticalLabelPosition=bottom;verticalAlign=top;align=center;html=1;fontSize=12;fontStyle=0;aspect=fixed;shape=mxgraph.aws4.resourceIcon;resIcon=mxgraph.aws4.lambda;" vertex="1" parent="1"><mxGeometry x="250" y="451.35" width="50" height="50" as="geometry"/></mxCell><mxCell id="19" value="CRSetBoundary" style="outlineConnect=0;fontColor=#B3B3B3;gradientColor=#F34482;gradientDirection=north;fillColor=#BC1356;strokeColor=#ffffff;dashed=0;verticalLabelPosition=bottom;verticalAlign=top;align=center;html=1;fontSize=12;fontStyle=0;aspect=fixed;shape=mxgraph.aws4.resourceIcon;resIcon=mxgraph.aws4.cloudformation;" vertex="1" parent="1"><mxGeometry y="468.75" width="50" height="50" as="geometry"/></mxCell><mxCell id="20" value="SetBoundaryRole" style="outlineConnect=0;fontColor=#B3B3B3;gradientColor=#F54749;gradientDirection=north;fillColor=#C7131F;strokeColor=#ffffff;dashed=0;verticalLabelPosition=bottom;verticalAlign=top;align=center;html=1;fontSize=12;fontStyle=0;aspect=fixed;shape=mxgraph.aws4.resourceIcon;resIcon=mxgraph.aws4.role;" vertex="1" parent="1"><mxGeometry x="500" y="637.5" width="50" height="50" as="geometry"/></mxCell><mxCell id="21" value="PrincipalWithPreviousBoundary" style="outlineConnect=0;fontColor=#B3B3B3;gradientColor=#4D72F3;gradientDirection=north;fillColor=#3334B9;strokeColor=#ffffff;dashed=0;verticalLabelPosition=bottom;verticalAlign=top;align=center;html=1;fontSize=12;fontStyle=0;aspect=fixed;shape=mxgraph.aws4.resourceIcon;resIcon=mxgraph.aws4.dynamodb;" vertex="1" parent="1"><mxGeometry x="750" y="600" width="50" height="50" as="geometry"/></mxCell><mxCell id="22" value="ssm * *&#xA;parameter/pmp/*" style="outlineConnect=0;fontColor=#B3B3B3;gradientColor=#aaaaaa;gradientDirection=north;fillColor=#aaaaaa;strokeColor=#ffffff;dashed=0;verticalLabelPosition=bottom;verticalAlign=top;align=center;html=1;fontSize=12;fontStyle=0;aspect=fixed;shape=mxgraph.aws4.resourceIcon;resIcon=mxgraph.aws4.ssm;" vertex="1" parent="1"><mxGeometry x="1000" y="100" width="50" height="50" as="geometry"/></mxCell><mxCell id="23" value="aws-marketplace * *&#xA;awsmarketplace/*" style="outlineConnect=0;fontColor=#B3B3B3;gradientColor=#aaaaaa;gradientDirection=north;fillColor=#aaaaaa;strokeColor=#ffffff;dashed=0;verticalLabelPosition=bottom;verticalAlign=top;align=center;html=1;fontSize=12;fontStyle=0;aspect=fixed;shape=mxgraph.aws4.resourceIcon;resIcon=mxgraph.aws4.aws-marketplace;" vertex="1" parent="1"><mxGeometry x="750" y="200" width="50" height="50" as="geometry"/></mxCell><mxCell id="24" value="iam  &#xA;policy/blockpmpadminpolicyboundary" style="outlineConnect=0;fontColor=#B3B3B3;gradientColor=#aaaaaa;gradientDirection=north;fillColor=#aaaaaa;strokeColor=#ffffff;dashed=0;verticalLabelPosition=bottom;verticalAlign=top;align=center;html=1;fontSize=12;fontStyle=0;aspect=fixed;shape=mxgraph.aws4.resourceIcon;resIcon=mxgraph.aws4.identity_and_access_management;" vertex="1" parent="1"><mxGeometry x="750" y="300" width="50" height="50" as="geometry"/></mxCell><mxCell id="25" value="iam  *&#xA;policy/blockpmpadminpolicyboundary" style="outlineConnect=0;fontColor=#B3B3B3;gradientColor=#aaaaaa;gradientDirection=north;fillColor=#aaaaaa;strokeColor=#ffffff;dashed=0;verticalLabelPosition=bottom;verticalAlign=top;align=center;html=1;fontSize=12;fontStyle=0;aspect=fixed;shape=mxgraph.aws4.resourceIcon;resIcon=mxgraph.aws4.identity_and_access_management;" vertex="1" parent="1"><mxGeometry x="750" y="400" width="50" height="50" as="geometry"/></mxCell><mxCell id="26" value="iam  &#xA;user/*" style="outlineConnect=0;fontColor=#B3B3B3;gradientColor=#aaaaaa;gradientDirection=north;fillColor=#aaaaaa;strokeColor=#ffffff;dashed=0;verticalLabelPosition=bottom;verticalAlign=top;align=center;html=1;fontSize=12;fontStyle=0;aspect=fixed;shape=mxgraph.aws4.resourceIcon;resIcon=mxgraph.aws4.identity_and_access_management;" vertex="1" parent="1"><mxGeometry x="750" y="700" width="50" height="50" as="geometry"/></mxCell><mxCell id="27" value="iam  &#xA;role/*" style="outlineConnect=0;fontColor=#B3B3B3;gradientColor=#aaaaaa;gradientDirection=north;fillColor=#aaaaaa;strokeColor=#ffffff;dashed=0;verticalLabelPosition=bottom;verticalAlign=top;align=center;html=1;fontSize=12;fontStyle=0;aspect=fixed;shape=mxgraph.aws4.resourceIcon;resIcon=mxgraph.aws4.identity_and_access_management;" vertex="1" parent="1"><mxGeometry x="750" y="800" width="50" height="50" as="geometry"/></mxCell><mxCell id="ssm * *&#xA;parameter/pmp/*|lambdaPMProle" value="PolicyDocument" style="edgeStyle=orthogonalEdgeStyle;rounded=1;orthogonalLoop=1;jettySize=auto;html=1;labelBackgroundColor=none;fontColor=#EA6B66;noEdgeStyle=1;orthogonal=1;" edge="1" parent="1" source="2" target="22"><mxGeometry relative="1" as="geometry"><Array as="points"><mxPoint x="812" y="125"/><mxPoint x="988" y="125"/></Array></mxGeometry></mxCell><mxCell id="SQSSyncNotifications|lambdaPMProle" value="PolicyDocument" style="edgeStyle=orthogonalEdgeStyle;rounded=1;orthogonalLoop=1;jettySize=auto;html=1;labelBackgroundColor=none;fontColor=#EA6B66;noEdgeStyle=1;orthogonal=1;" edge="1" parent="1" source="2" target="10"><mxGeometry relative="1" as="geometry"><Array as="points"><mxPoint x="736" y="125"/><mxPoint x="650" y="195.9209103655271"/><mxPoint x="400" y="195.9209103655271"/><mxPoint x="312" y="220.98540521022937"/></Array></mxGeometry></mxCell><mxCell id="awsrequests|SyncPMPMember" value="Layers" style="edgeStyle=orthogonalEdgeStyle;rounded=1;orthogonalLoop=1;jettySize=auto;html=1;labelBackgroundColor=none;fontColor=#EA6B66;noEdgeStyle=1;orthogonal=1;" edge="1" parent="1" source="3" target="4"><mxGeometry relative="1" as="geometry"><Array as="points"><mxPoint x="562" y="110.92091036552712"/><mxPoint x="738" y="25"/></Array></mxGeometry></mxCell><mxCell id="lambdaPMProle|SyncPMPMember" value="Role" style="edgeStyle=orthogonalEdgeStyle;rounded=1;orthogonalLoop=1;jettySize=auto;html=1;labelBackgroundColor=none;fontColor=#EA6B66;noEdgeStyle=1;orthogonal=1;" edge="1" parent="1" source="3" target="2"><mxGeometry relative="1" as="geometry"><Array as="points"><mxPoint x="562" y="130.9209103655271"/><mxPoint x="738" y="111.66666666666667"/></Array></mxGeometry></mxCell><mxCell id="SQSSyncNotifications|SyncPMPMember" value="Invoke" style="edgeStyle=orthogonalEdgeStyle;rounded=1;orthogonalLoop=1;jettySize=auto;html=1;fillColor=#1ba1e2;strokeColor=#006EAF;labelBackgroundColor=none;fontColor=#7EA6E0;noEdgeStyle=1;orthogonal=1;" edge="1" parent="1" source="10" target="3"><mxGeometry relative="1" as="geometry"><Array as="points"><mxPoint x="312" y="200.98540521022937"/><mxPoint x="488" y="120.9209103655271"/></Array></mxGeometry></mxCell><mxCell id="SQSSyncNotifications|SQSSyncNotificationsPolicy" value="Queues&#xA;Resource" style="edgeStyle=orthogonalEdgeStyle;rounded=1;orthogonalLoop=1;jettySize=auto;html=1;labelBackgroundColor=none;fontColor=#EA6B66;noEdgeStyle=1;orthogonal=1;" edge="1" parent="1" source="11" target="10"><mxGeometry relative="1" as="geometry"><Array as="points"><mxPoint x="62" y="210.98540521022937"/><mxPoint x="238" y="200.98540521022937"/></Array></mxGeometry></mxCell><mxCell id="SQSSyncNotifications|SnsSubscription" value="Endpoint" style="edgeStyle=orthogonalEdgeStyle;rounded=1;orthogonalLoop=1;jettySize=auto;html=1;labelBackgroundColor=none;fontColor=#EA6B66;noEdgeStyle=1;orthogonal=1;" edge="1" parent="1" source="12" target="10"><mxGeometry relative="1" as="geometry"><Array as="points"><mxPoint x="62" y="312.7627310965814"/><mxPoint x="238" y="220.98540521022937"/></Array></mxGeometry></mxCell><mxCell id="CRGetEnvInfo|BlockPMPAdminSCP" value="TargetIds" style="edgeStyle=orthogonalEdgeStyle;rounded=1;orthogonalLoop=1;jettySize=auto;html=1;labelBackgroundColor=none;fontColor=#EA6B66;noEdgeStyle=1;orthogonal=1;" edge="1" parent="1" source="13" target="15"><mxGeometry relative="1" as="geometry"><Array as="points"><mxPoint x="812" y="525"/><mxPoint x="988" y="521.2457656860352"/></Array></mxGeometry></mxCell><mxCell id="GetEnvInfoRole|GetEnvInfo" value="Role" style="edgeStyle=orthogonalEdgeStyle;rounded=1;orthogonalLoop=1;jettySize=auto;html=1;labelBackgroundColor=none;fontColor=#EA6B66;noEdgeStyle=1;orthogonal=1;" edge="1" parent="1" source="14" target="16"><mxGeometry relative="1" as="geometry"><Array as="points"><mxPoint x="1312" y="519.3686485290527"/><mxPoint x="1488" y="519.3686485290527"/></Array></mxGeometry></mxCell><mxCell id="GetEnvInfo|CRGetEnvInfo" value="ServiceToken" style="edgeStyle=orthogonalEdgeStyle;rounded=1;orthogonalLoop=1;jettySize=auto;html=1;labelBackgroundColor=none;fontColor=#EA6B66;noEdgeStyle=1;orthogonal=1;" edge="1" parent="1" source="15" target="14"><mxGeometry relative="1" as="geometry"><Array as="points"><mxPoint x="1062" y="521.2457656860352"/><mxPoint x="1238" y="519.3686485290527"/></Array></mxGeometry></mxCell><mxCell id="aws-marketplace * *&#xA;awsmarketplace/*|BlockPMPAdminPolicyBoundary" value="Resource" style="edgeStyle=orthogonalEdgeStyle;rounded=1;orthogonalLoop=1;jettySize=auto;html=1;labelBackgroundColor=none;fontColor=#EA6B66;noEdgeStyle=1;orthogonal=1;" edge="1" parent="1" source="17" target="23"><mxGeometry relative="1" as="geometry"><Array as="points"><mxPoint x="562" y="380"/><mxPoint x="738" y="225"/></Array></mxGeometry></mxCell><mxCell id="iam  &#xA;policy/blockpmpadminpolicyboundary|BlockPMPAdminPolicyBoundary" value="iam:PermissionsBoundary" style="edgeStyle=orthogonalEdgeStyle;rounded=1;orthogonalLoop=1;jettySize=auto;html=1;labelBackgroundColor=none;fontColor=#EA6B66;noEdgeStyle=1;orthogonal=1;" edge="1" parent="1" source="17" target="24"><mxGeometry relative="1" as="geometry"><Array as="points"><mxPoint x="564" y="390"/><mxPoint x="738" y="325"/></Array></mxGeometry></mxCell><mxCell id="iam  *&#xA;policy/blockpmpadminpolicyboundary|BlockPMPAdminPolicyBoundary" value="Resource" style="edgeStyle=orthogonalEdgeStyle;rounded=1;orthogonalLoop=1;jettySize=auto;html=1;labelBackgroundColor=none;fontColor=#EA6B66;noEdgeStyle=1;orthogonal=1;" edge="1" parent="1" source="17" target="25"><mxGeometry relative="1" as="geometry"><Array as="points"><mxPoint x="564" y="400"/><mxPoint x="738" y="425"/></Array></mxGeometry></mxCell><mxCell id="BlockPMPAdminSCP|BlockPMPAdminPolicyBoundary" value="Resource" style="edgeStyle=orthogonalEdgeStyle;rounded=1;orthogonalLoop=1;jettySize=auto;html=1;labelBackgroundColor=none;fontColor=#EA6B66;noEdgeStyle=1;orthogonal=1;" edge="1" parent="1" source="17" target="13"><mxGeometry relative="1" as="geometry"><Array as="points"><mxPoint x="562" y="410"/><mxPoint x="738" y="525"/></Array></mxGeometry></mxCell><mxCell id="PrincipalWithPreviousBoundary|SetBoundaryLambda" value="Variable" style="edgeStyle=orthogonalEdgeStyle;rounded=1;orthogonalLoop=1;jettySize=auto;html=1;labelBackgroundColor=none;fontColor=#EA6B66;noEdgeStyle=1;orthogonal=1;" edge="1" parent="1" source="18" target="21"><mxGeometry relative="1" as="geometry"><Array as="points"><mxPoint x="314" y="481.35"/><mxPoint x="400" y="550.675"/><mxPoint x="650" y="550.675"/><mxPoint x="738" y="615"/></Array></mxGeometry></mxCell><mxCell id="BlockPMPAdminPolicyBoundary|SetBoundaryLambda" value="Variable" style="edgeStyle=orthogonalEdgeStyle;rounded=1;orthogonalLoop=1;jettySize=auto;html=1;labelBackgroundColor=none;fontColor=#EA6B66;noEdgeStyle=1;orthogonal=1;" edge="1" parent="1" source="18" target="17"><mxGeometry relative="1" as="geometry"><Array as="points"><mxPoint x="314" y="471.35"/><mxPoint x="488" y="395"/></Array></mxGeometry></mxCell><mxCell id="lambdaPMProle|SetBoundaryLambda" value="Variable" style="edgeStyle=orthogonalEdgeStyle;rounded=1;orthogonalLoop=1;jettySize=auto;html=1;labelBackgroundColor=none;fontColor=#EA6B66;noEdgeStyle=1;orthogonal=1;" edge="1" parent="1" source="18" target="2"><mxGeometry relative="1" as="geometry"><Array as="points"><mxPoint x="312" y="461.35"/><mxPoint x="400" y="300"/><mxPoint x="650" y="300"/><mxPoint x="738" y="138.33333333333334"/></Array></mxGeometry></mxCell><mxCell id="SetBoundaryRole|SetBoundaryLambda" value="Role" style="edgeStyle=orthogonalEdgeStyle;rounded=1;orthogonalLoop=1;jettySize=auto;html=1;labelBackgroundColor=none;fontColor=#EA6B66;noEdgeStyle=1;orthogonal=1;" edge="1" parent="1" source="18" target="20"><mxGeometry relative="1" as="geometry"><Array as="points"><mxPoint x="312" y="491.35"/><mxPoint x="488" y="662.5"/></Array></mxGeometry></mxCell><mxCell id="SetBoundaryLambda|CRSetBoundary" value="ServiceToken" style="edgeStyle=orthogonalEdgeStyle;rounded=1;orthogonalLoop=1;jettySize=auto;html=1;labelBackgroundColor=none;fontColor=#EA6B66;noEdgeStyle=1;orthogonal=1;" edge="1" parent="1" source="19" target="18"><mxGeometry relative="1" as="geometry"><Array as="points"><mxPoint x="62" y="493.75"/><mxPoint x="238" y="476.35"/></Array></mxGeometry></mxCell><mxCell id="iam  &#xA;user/*|SetBoundaryRole" value="PolicyDocument" style="edgeStyle=orthogonalEdgeStyle;rounded=1;orthogonalLoop=1;jettySize=auto;html=1;labelBackgroundColor=none;fontColor=#EA6B66;noEdgeStyle=1;orthogonal=1;" edge="1" parent="1" source="20" target="26"><mxGeometry relative="1" as="geometry"><Array as="points"><mxPoint x="564" y="662.5"/><mxPoint x="738" y="725"/></Array></mxGeometry></mxCell><mxCell id="iam  &#xA;role/*|SetBoundaryRole" value="PolicyDocument" style="edgeStyle=orthogonalEdgeStyle;rounded=1;orthogonalLoop=1;jettySize=auto;html=1;labelBackgroundColor=none;fontColor=#EA6B66;noEdgeStyle=1;orthogonal=1;" edge="1" parent="1" source="20" target="27"><mxGeometry relative="1" as="geometry"><Array as="points"><mxPoint x="562" y="675.8333333333334"/><mxPoint x="738" y="825"/></Array></mxGeometry></mxCell><mxCell id="PrincipalWithPreviousBoundary|SetBoundaryRole" value="PolicyDocument" style="edgeStyle=orthogonalEdgeStyle;rounded=1;orthogonalLoop=1;jettySize=auto;html=1;labelBackgroundColor=none;fontColor=#EA6B66;noEdgeStyle=1;orthogonal=1;" edge="1" parent="1" source="20" target="21"><mxGeometry relative="1" as="geometry"><Array as="points"><mxPoint x="562" y="649.1666666666666"/><mxPoint x="738" y="635"/></Array></mxGeometry></mxCell></root></mxGraphModel>
            </diagram>
          </mxfile>